<?xml version="1.0" encoding="iso-8859-1"?>
<!-- Generator: Adobe Illustrator 19.0.0, SVG Export Plug-In . SVG Version: 6.00 Build 0)  -->
<svg version="1.1" id="Capa_1" xmlns="http://www.w3.org/2000/svg" xmlns:xlink="http://www.w3.org/1999/xlink" x="0px" y="0px"
	 viewBox="0 0 407.51 407.51" style="enable-background:new 0 0 407.51 407.51;" xml:space="preserve">
<path style="fill:#00BBD3;" d="M391.837,236.147v105.012c0,8.882-6.792,15.673-15.673,15.673h-57.992v-1.567L212.637,228.31
	l9.927-8.359l74.188-59.037L391.837,236.147z"/>
<path style="fill:#4DCFE0;" d="M318.171,355.265v1.567H31.347c-8.882,0-15.673-6.792-15.673-15.673v-102.4l128-94.041l68.963,83.592
	L318.171,355.265z"/>
<path style="fill:#D4E1F4;" d="M391.837,66.351v169.796l-95.086-75.233l-74.188,59.037l-9.927,8.359l-68.963-83.592l-128,94.041
	V66.351c0-8.882,6.792-15.673,15.673-15.673h344.816C385.045,50.678,391.837,57.469,391.837,66.351z"/>
<path style="fill:#3A2C51;" d="M376.163,35.004H31.347C13.584,35.004,0,48.588,0,66.351v274.808
	c0,17.763,13.584,31.347,31.347,31.347h344.816c17.763,0,31.347-13.584,31.347-31.347V66.351
	C407.51,48.588,393.927,35.004,376.163,35.004z M376.163,66.351v137.404l-69.486-55.38c-5.747-4.702-13.584-4.702-19.331,0
	l-72.098,57.469l-59.559-71.053c-5.224-6.269-14.629-7.837-21.42-2.612L31.347,207.935V66.351H376.163z M31.347,246.596
	l109.714-80.457l59.559,72.098l85.682,102.922H31.347V246.596z M327.053,341.159L234.58,230.4l62.171-49.633l79.412,62.694v97.175
	h-49.11V341.159z"/>
<g>
</g>
<g>
</g>
<g>
</g>
<g>
</g>
<g>
</g>
<g>
</g>
<g>
</g>
<g>
</g>
<g>
</g>
<g>
</g>
<g>
</g>
<g>
</g>
<g>
</g>
<g>
</g>
<g>
</g>
</svg>
